<svg height="512" viewBox="0 0 64 64" width="512" xmlns="http://www.w3.org/2000/svg"><path d="m10 3h2a8 8 0 0 1 8 8v4a0 0 0 0 1 0 0h-2a8 8 0 0 1 -8-8v-4a0 0 0 0 1 0 0z" fill="#55b56a"/><path d="m19.241 15.65-6-7 1.518-1.3 6.83 7.968z" fill="#5f7c28"/><path d="m3 36a17 17 0 0 0 34 0c0-9.389-7.611-21-17-21s-17 11.611-17 21z" fill="#661c2f"/><path d="m20.958 50c-7.277-.307-10.589-4.194-10.727-4.359a13.447 13.447 0 0 1 -3.709-12.851 19.048 19.048 0 0 1 2.659-6.363l1.639 1.145c-.265.381-6.412 9.422.887 16.721.176.2 2.995 3.44 9.335 3.708z" fill="#892844"/><path d="m27 44a17 17 0 0 0 34 0c0-9.389-7.611-21-17-21s-17 11.611-17 21z" fill="#8c2861"/><path d="m31 44a13 13 0 0 0 26 0c0-7.18-5.82-17-13-17s-13 9.82-13 17z" fill="#fcf05a"/><path d="m46 37a2 2 0 0 1 -4 0c0-1.1.9-4 2-4s2 2.9 2 4z" fill="#f9bb4b"/><path d="m42 47a2 2 0 0 1 4 0c0 1.1-.9 4-2 4s-2-2.895-2-4z" fill="#f9bb4b"/><path d="m40 40a2 2 0 0 1 0 4c-1.1 0-4-.9-4-2s2.9-2 4-2z" fill="#f9bb4b"/><path d="m48 40a2 2 0 0 0 0 4c1.1 0 4-.9 4-2s-2.895-2-4-2z" fill="#f9bb4b"/><g fill="#394d5c"><path d="m48 51h2v2h-2z"/><path d="m51 46h2v2h-2z"/><path d="m35 46h2v2h-2z"/><path d="m38 49h2v2h-2z"/><path d="m49 35h2v2h-2z"/><path d="m47 31h2v2h-2z"/><path d="m37 34h2v2h-2z"/></g></svg>