<svg width="464" height="464" xmlns="http://www.w3.org/2000/svg">
  <path fill="#553b25" d="M84.813 423.76a75.77 75.77 0 0126.773-37.111l116.376-86.538A996.524 996.524 0 00368.47 173.214l41.666-45.531a64.884 64.884 0 0130.59-18.712l9.795-2.73-17.79-22.705-19.979 15.656a67.409 67.409 0 01-5.663 3.97l-64.29 40.114a996.223 996.223 0 00-169.172 132.943l-50.833 49.713a262.363 262.363 0 00-65.782 105.516c-2.764 8.392 1.799 17.438 10.19 20.203l7.6 2.503c8.391 2.765 17.437-1.798 20.202-10.19-8.392-2.765-12.955-11.811-10.19-20.203zm0 0"/>
  <path stroke="null" fill="#553b25" d="M399.98 27.995l-11.69-13.54-155.006 154.413a544.178 544.178 0 01-48.273 42.714L47.47 319.512a57.098 57.098 0 01-39.444 12.03 7.704 7.704 0 00-8.127 6.44 7.704 7.704 0 005.638 8.698l14.593 3.777a57.097 57.097 0 0047.684-8.959l120.615-86.86a545.971 545.971 0 0099.926-93.008L399.979 27.995zm0 0"/>
  <g stroke="null">
    <path fill-rule="evenodd" fill="#ffd772" d="M200.222 235.915c-20.185-1.186-47.922-16.515-74.675-63.139a3.363 3.363 0 01-.044-3.267 3.359 3.359 0 012.64-1.768c41.556-4.028 68.073 3.39 83.771 14.255 4.05 2.36 7.463 4.89 10.294 7.53 25.914 24.022 3.939 56.459-21.986 46.39z" clip-rule="evenodd"/>
    <path fill-rule="evenodd" fill="#ffd772" d="M238.309 269.034c-6.064 19.1-26.742 42.081-75.212 58.854a3.34 3.34 0 01-3.244-.593 3.322 3.322 0 01-1.209-2.898c4.9-53.494 23.754-79.005 41.578-88.482 4.095-2.16 8.1-3.49 11.883-4.129.056-.01.1-.01.145-.022 21.348-7.318 35.279 20.162 26.059 37.27z" clip-rule="evenodd"/>
    <path fill-rule="evenodd" fill="#ffd772" d="M317.974 324.397a3.362 3.362 0 01-1.242 2.92 3.331 3.331 0 01-3.211.57c-48.482-16.772-69.148-39.753-75.212-58.853-2.406-7.63-2.495-14.646-1.13-20.375 7.172-10.35 17.667-17.734 27.178-16.895 3.826.627 7.91 1.97 12.028 4.151 17.857 9.477 36.677 34.988 41.589 88.482z" clip-rule="evenodd"/>
    <path fill-rule="evenodd" fill="#fbba58" d="M316.732 327.317a3.331 3.331 0 01-3.211.57c-48.482-16.772-69.148-39.753-75.212-58.853-2.406-7.63-2.495-14.646-1.13-20.375h2.249a28.7 28.7 0 0014.523-4.643l62.78 83.301zM221.57 243.233l-61.717 84.062a3.322 3.322 0 01-1.209-2.898c4.9-53.494 23.754-79.005 41.578-88.482 4.095-2.16 8.1-3.49 11.883-4.129.056-.01.1-.01.145-.022.436.906.873 1.813 1.376 2.685a28.985 28.985 0 007.944 8.784zM224.972 194.964c-1.444.75-2.809 1.656-4.084 2.618-4.61 3.58-8.134 8.57-9.88 14.333l-85.505-42.406a3.359 3.359 0 012.64-1.768c41.556-4.028 68.073 3.39 83.771 14.255 4.05 2.36 7.463 4.89 10.294 7.53 1.04 2.305 1.97 4.263 2.764 5.438z" clip-rule="evenodd"/>
    <path fill="#d87e49" d="M211 220.375a8.413 8.413 0 01-3.876-.946l-19.601-10.128a8.458 8.458 0 01-3.632-11.396c2.146-4.15 7.249-5.777 11.397-3.632l19.601 10.129A8.458 8.458 0 01211 220.375zM207.948 269.05a8.458 8.458 0 01-6.648-13.678l13.617-17.358a8.458 8.458 0 0113.308 10.441l-13.617 17.357a8.448 8.448 0 01-6.66 3.238zM268.692 269.05a8.441 8.441 0 01-6.66-3.238l-13.616-17.358a8.458 8.458 0 1113.308-10.44l13.617 17.357a8.458 8.458 0 01-6.649 13.679z"/>
    <path fill-rule="evenodd" fill="#ffd772" d="M264.166 181.996a22.518 22.518 0 01-2.316 7.385c-8.537 16.615-36.654 21.684-50.495-7.385-6.188-18.92-3.323-49.13 23.564-90.753.66-1.03 1.745-1.533 2.83-1.533a3.32 3.32 0 012.82 1.533c26.887 41.622 29.751 71.832 23.597 90.753z" clip-rule="evenodd"/>
    <path fill-rule="evenodd" fill="#fbba58" d="M264.166 181.996a22.518 22.518 0 01-2.316 7.385c-4.867 1.678-9.309 3.423-10.763 5.583-3.961-2.115-8.515-3.301-13.338-3.301V89.71a3.32 3.32 0 012.82 1.533c26.887 41.622 29.751 71.832 23.597 90.753z" clip-rule="evenodd"/>
    <path fill="#d87e49" d="M237.744 200.117a8.457 8.457 0 01-8.458-8.457v-22.064c0-4.671 3.787-8.457 8.458-8.457s8.458 3.786 8.458 8.457v22.064a8.457 8.457 0 01-8.458 8.457z"/>
    <path fill-rule="evenodd" fill="#ffd772" d="M350.522 172.776c-26.741 46.624-54.512 61.953-74.697 63.139-4.117-2.182-8.201-3.524-12.028-4.151-3.871-2.551-7.34-6.523-9.846-11.346-3.793-7.261-5.382-16.425-2.864-25.454 3.054-4.52 7.35-8.974 13.08-12.968 15.664-10.865 42.215-18.283 83.77-14.255a3.322 3.322 0 012.63 1.768c.526.974.57 2.193-.045 3.267z" clip-rule="evenodd"/>
    <path fill-rule="evenodd" fill="#fbba58" d="M350.522 172.776c-26.741 46.624-54.512 61.953-74.697 63.139-4.117-2.182-8.201-3.524-12.028-4.151-3.871-2.551-7.34-6.523-9.846-11.346 3.558-2.853 11.704-6.456 11.088-8.503l85.528-42.406c.526.974.57 2.193-.045 3.267z" clip-rule="evenodd"/>
    <path fill="#d87e49" d="M265.05 220.375a8.458 8.458 0 01-3.89-15.973l19.602-10.129a8.458 8.458 0 117.765 15.028l-19.602 10.128a8.427 8.427 0 01-3.876.946z"/>
    <path fill-rule="evenodd" fill="#fed1a3" d="M237.745 191.66c15.737 0 28.513 12.745 28.513 28.513 0 15.738-12.777 28.483-28.513 28.483s-28.513-12.745-28.513-28.483c0-15.768 12.776-28.513 28.513-28.513z" clip-rule="evenodd"/>
  </g>
</svg>
